<svg width="920" height="240" viewBox="0 0 920 240" fill="none" xmlns="http://www.w3.org/2000/svg" role="img" aria-labelledby="title desc">
	<title id="title">Hire Gnome logo</title>
	<desc id="desc">A sample logo with a stylized gnome icon and Hire Gnome wordmark.</desc>
	<rect width="920" height="240" rx="28" fill="#F8FAFC"/>
	<g transform="translate(48 30)">
		<circle cx="90" cy="90" r="84" fill="#F1F5F9"/>
		<path d="M90 12L34 92H146L90 12Z" fill="#F97316"/>
		<path d="M60 96C60 76.1177 76.1177 60 96 60C115.882 60 132 76.1177 132 96V102H60V96Z" fill="#334155"/>
		<circle cx="78" cy="98" r="6.5" fill="#F8FAFC"/>
		<circle cx="114" cy="98" r="6.5" fill="#F8FAFC"/>
		<path d="M96 108C72 108 56 126 56 146C56 172 74 186 96 186C118 186 136 172 136 146C136 126 120 108 96 108Z" fill="#FFFFFF"/>
		<path d="M78 132C83 138 89 141 96 141C103 141 109 138 114 132" stroke="#CBD5E1" stroke-width="4" stroke-linecap="round"/>
		<rect x="78" y="152" width="36" height="26" rx="6" fill="#1E293B"/>
		<rect x="84" y="158" width="24" height="4" rx="2" fill="#F97316"/>
	</g>
	<g transform="translate(230 64)">
		<text x="0" y="64" font-family="'Avenir Next', 'Avenir', 'Segoe UI', sans-serif" font-size="72" font-weight="700" letter-spacing="0.5" fill="#0F172A">Hire</text>
		<text x="188" y="64" font-family="'Avenir Next', 'Avenir', 'Segoe UI', sans-serif" font-size="72" font-weight="700" letter-spacing="0.5" fill="#F97316">Gnome</text>
		<text x="2" y="112" font-family="'Avenir Next', 'Avenir', 'Segoe UI', sans-serif" font-size="24" font-weight="500" letter-spacing="3.8" fill="#475569">PROFESSIONAL PLACEMENT SOFTWARE</text>
	</g>
</svg>
